<?xml version="1.0" standalone="no"?>
<!DOCTYPE svg PUBLIC "-//W3C//DTD SVG 20010904//EN"
 "http://www.w3.org/TR/2001/REC-SVG-20010904/DTD/svg10.dtd">
<svg version="1.0" xmlns="http://www.w3.org/2000/svg"
 width="783.000000pt" height="783.000000pt" viewBox="0 0 783.000000 783.000000"
 preserveAspectRatio="xMidYMid meet">
<metadata>
Created by potrace 1.11, written by Peter Selinger 2001-2013
</metadata>
<g transform="translate(0.000000,783.000000) scale(0.100000,-0.100000)"
fill="#000000" stroke="none">
<path d="M3716 7772 c-3 -5 -43 -8 -90 -7 -47 0 -86 -3 -86 -7 0 -4 -27 -8
-59 -8 -33 0 -62 -4 -65 -8 -3 -5 -35 -8 -71 -7 -36 1 -65 -2 -65 -7 0 -4 -13
-8 -28 -8 -15 0 -33 -5 -40 -12 -7 -7 -12 -9 -12 -6 0 3 -28 -1 -62 -9 -35 -8
-90 -19 -123 -24 -33 -5 -69 -14 -80 -19 -36 -15 -60 -23 -75 -25 -41 -6 -80
-19 -80 -27 0 -5 -8 -8 -17 -7 -18 2 -44 -5 -73 -20 -9 -5 -30 -12 -48 -16
-18 -3 -32 -11 -32 -16 0 -5 -11 -9 -25 -9 -14 0 -25 -4 -25 -9 0 -4 -8 -8
-17 -8 -26 0 -63 -14 -63 -24 0 -4 -9 -6 -20 -4 -11 2 -20 0 -20 -6 0 -5 -9
-9 -19 -9 -11 0 -21 -3 -23 -7 -5 -13 -68 -43 -89 -43 -10 0 -19 -4 -19 -10 0
-5 -3 -9 -7 -8 -5 1 -21 -5 -38 -12 -16 -7 -33 -13 -37 -12 -5 1 -8 -3 -8 -8
0 -6 -7 -10 -15 -10 -8 0 -15 -4 -15 -10 0 -5 -3 -9 -7 -8 -11 3 -103 -44
-103 -53 0 -6 -29 -17 -46 -17 -3 -1 -13 -9 -22 -20 -9 -10 -28 -23 -41 -27
-14 -4 -33 -16 -44 -26 -11 -10 -24 -16 -29 -13 -4 3 -8 0 -8 -5 0 -6 -7 -11
-15 -11 -9 0 -18 -7 -21 -15 -4 -8 -14 -15 -24 -15 -10 0 -20 -7 -24 -15 -3
-8 -12 -15 -20 -15 -8 0 -23 -11 -33 -24 -10 -13 -29 -26 -41 -30 -12 -4 -22
-12 -22 -17 0 -5 -6 -9 -14 -9 -8 0 -23 -11 -34 -25 -11 -14 -25 -25 -30 -25
-6 0 -24 -13 -40 -30 -17 -16 -35 -30 -41 -30 -6 0 -11 -5 -11 -12 0 -6 -2 -9
-6 -6 -7 7 -61 -45 -56 -54 2 -5 -4 -8 -14 -8 -9 0 -48 -31 -85 -70 -38 -38
-73 -70 -77 -70 -12 0 -152 -140 -152 -152 0 -5 -5 -6 -10 -3 -6 3 -10 -1 -10
-10 0 -9 -24 -40 -54 -68 -29 -29 -56 -61 -60 -72 -3 -11 -22 -31 -41 -45 -19
-14 -35 -33 -35 -42 0 -10 -9 -22 -20 -28 -11 -6 -20 -18 -20 -26 0 -9 -11
-25 -25 -36 -14 -11 -25 -24 -25 -30 0 -6 -12 -22 -26 -35 -14 -13 -24 -27
-20 -30 3 -3 -2 -13 -12 -22 -18 -17 -37 -45 -49 -71 -3 -8 -12 -19 -20 -23
-7 -4 -13 -15 -13 -22 0 -8 -4 -15 -10 -15 -5 0 -10 -9 -10 -20 0 -11 -6 -23
-14 -26 -8 -3 -18 -19 -21 -35 -4 -16 -10 -29 -15 -29 -4 0 -22 -29 -40 -65
-18 -36 -36 -65 -40 -65 -5 0 -11 -13 -15 -30 -4 -16 -10 -30 -15 -30 -5 0
-11 -13 -15 -30 -4 -16 -10 -30 -15 -30 -6 0 -18 -26 -24 -52 0 -3 -4 -10 -9
-14 -4 -4 -7 -16 -7 -26 0 -10 -5 -18 -11 -18 -5 0 -8 -4 -4 -9 3 -5 1 -12 -5
-16 -5 -3 -10 -15 -10 -26 0 -11 -4 -18 -9 -15 -5 3 -12 -9 -16 -27 -4 -17 -9
-34 -10 -37 -2 -3 -6 -15 -10 -27 -4 -13 -12 -23 -17 -23 -6 0 -8 -7 -5 -15 4
-8 2 -17 -3 -20 -6 -4 -10 -16 -10 -29 0 -12 -7 -31 -15 -42 -8 -10 -15 -29
-15 -41 0 -13 -5 -23 -11 -23 -6 0 -9 -9 -6 -20 3 -11 2 -20 -2 -20 -7 0 -26
-58 -36 -113 -4 -20 -11 -40 -16 -43 -5 -3 -9 -18 -9 -34 0 -16 -4 -31 -9 -35
-6 -3 -8 -14 -6 -25 2 -11 0 -20 -6 -20 -5 0 -9 -18 -9 -40 0 -22 -5 -40 -10
-40 -6 0 -8 -11 -6 -25 3 -13 0 -27 -5 -30 -5 -4 -9 -24 -9 -46 0 -21 -4 -39
-10 -39 -5 0 -9 -10 -9 -22 2 -45 -14 -159 -22 -164 -5 -3 -9 -32 -9 -65 0
-32 -3 -59 -7 -59 -5 0 -7 -43 -6 -95 1 -52 -3 -95 -8 -95 -5 0 -9 -102 -9
-240 0 -132 4 -240 8 -240 5 0 9 -38 8 -85 -1 -47 2 -85 7 -85 4 0 7 -29 7
-65 0 -40 4 -65 11 -65 6 0 9 -16 8 -38 -2 -21 1 -43 5 -50 4 -7 8 -33 9 -57
0 -25 5 -45 9 -45 4 0 8 -18 8 -40 0 -22 4 -40 9 -40 5 0 8 -11 5 -24 -2 -14
0 -28 6 -31 5 -3 10 -24 10 -45 0 -21 5 -42 11 -45 6 -4 8 -13 5 -21 -3 -8 -1
-14 4 -14 6 0 10 -16 10 -35 0 -19 4 -35 10 -35 5 0 9 -3 8 -7 -4 -16 14 -93
23 -99 5 -3 9 -16 9 -30 0 -13 4 -24 9 -24 5 0 7 -9 4 -20 -3 -11 0 -20 6 -20
6 0 11 -11 11 -25 0 -14 5 -25 11 -25 5 0 8 -4 4 -9 -3 -6 3 -25 13 -43 11
-18 18 -41 16 -51 -1 -9 1 -17 4 -17 8 0 28 -44 38 -82 3 -16 10 -28 14 -28 7
0 12 -13 25 -55 2 -5 9 -23 16 -40 7 -16 12 -33 11 -37 -1 -5 3 -8 8 -8 6 0
10 -9 10 -21 0 -13 4 -18 12 -13 8 5 9 2 5 -9 -3 -10 -3 -17 1 -17 8 0 42 -73
42 -90 0 -6 5 -10 10 -10 6 0 10 -7 10 -15 0 -8 4 -15 10 -15 5 0 12 -11 16
-25 3 -14 11 -25 16 -25 6 0 8 -7 4 -15 -3 -8 -1 -15 4 -15 6 0 10 -6 10 -13
0 -7 9 -19 19 -26 11 -8 17 -20 14 -28 -3 -7 0 -13 6 -13 6 0 11 -7 11 -15 0
-9 7 -18 15 -21 8 -4 15 -14 15 -24 0 -10 7 -20 15 -24 8 -3 15 -12 15 -21 0
-8 4 -15 9 -15 5 0 13 -10 16 -22 4 -11 17 -31 29 -42 22 -22 41 -49 53 -76 3
-8 16 -24 29 -36 12 -11 25 -30 28 -42 4 -12 16 -24 27 -27 10 -4 17 -11 14
-16 -4 -5 -1 -9 4 -9 6 0 11 -5 11 -12 0 -7 10 -22 23 -33 12 -11 33 -37 47
-58 14 -20 33 -40 43 -43 10 -3 16 -8 14 -10 -3 -3 10 -20 27 -37 18 -18 36
-40 39 -49 4 -10 11 -18 16 -18 5 0 13 -9 16 -21 4 -11 9 -18 12 -16 3 3 33
-23 68 -59 34 -35 66 -64 70 -64 4 0 36 -29 70 -64 35 -36 65 -62 68 -60 2 2
22 -14 44 -36 23 -22 44 -40 47 -40 4 0 19 -11 34 -25 15 -14 32 -25 38 -25 6
0 20 -11 30 -25 10 -14 24 -25 30 -25 6 0 21 -11 34 -25 13 -14 25 -23 28 -21
2 2 12 -3 23 -12 11 -9 21 -15 22 -12 1 2 14 -7 29 -20 44 -42 57 -50 73 -50
9 0 18 -7 21 -15 4 -8 13 -15 20 -15 8 0 17 -7 20 -15 4 -8 15 -15 25 -15 10
0 19 -5 19 -10 0 -6 3 -9 8 -8 8 1 45 -13 52 -21 8 -9 39 -27 120 -67 41 -21
77 -41 78 -46 2 -4 8 -8 13 -8 6 0 31 -10 57 -22 26 -12 53 -21 60 -20 6 2 12
-1 12 -6 0 -9 35 -23 44 -19 2 1 13 -6 23 -16 11 -9 23 -14 26 -11 4 4 13 1
22 -6 8 -7 22 -10 30 -6 8 3 15 1 15 -4 0 -6 7 -10 15 -10 8 0 15 -4 15 -10 0
-5 11 -10 24 -10 14 0 28 -5 31 -10 4 -6 11 -8 16 -5 5 4 9 1 9 -4 0 -6 11
-11 25 -11 14 0 25 -5 25 -11 0 -6 7 -9 15 -6 8 4 17 2 20 -3 4 -6 16 -10 29
-10 12 0 26 -3 30 -7 7 -8 24 -12 74 -20 17 -3 32 -9 32 -14 0 -5 10 -9 23 -9
41 0 97 -12 97 -21 0 -5 13 -9 29 -9 17 0 32 -4 35 -9 3 -4 16 -6 30 -4 13 3
27 0 30 -6 4 -6 25 -11 47 -11 21 0 39 -4 39 -9 0 -5 18 -7 39 -5 22 2 43 -1
46 -6 3 -6 24 -10 46 -10 21 0 39 -5 39 -10 0 -7 20 -10 48 -10 26 1 108 -3
182 -9 166 -13 455 -13 655 0 83 5 164 9 182 9 17 0 34 4 38 10 3 5 26 10 50
10 24 0 46 4 49 9 3 5 24 7 46 6 22 -2 40 1 40 6 0 5 18 9 39 9 22 0 42 4 46
9 3 5 31 12 63 16 31 4 62 8 67 9 6 2 12 3 15 3 3 0 16 6 30 13 14 8 35 13 48
11 12 -1 22 2 22 7 0 9 37 18 93 24 9 1 17 6 17 10 0 4 11 8 25 8 14 0 25 5
25 10 0 6 6 10 13 9 21 -3 77 13 77 22 0 5 18 12 40 15 22 4 40 10 40 14 0 4
18 10 40 14 22 3 40 11 40 16 0 6 7 10 15 10 21 0 95 33 95 42 0 5 9 8 20 8
11 0 37 9 57 20 21 11 43 20 50 20 7 0 13 5 13 10 0 6 7 10 15 10 8 0 15 5 15
10 0 6 3 9 8 8 9 -3 160 70 164 80 5 11 68 42 84 42 8 0 17 7 20 15 4 8 12 15
20 15 8 0 14 4 14 8 0 5 23 20 52 35 29 15 48 27 43 27 -6 0 -2 5 7 11 10 5
20 8 23 7 2 -2 11 7 20 18 8 12 26 25 40 28 14 4 25 11 25 16 0 6 5 10 10 10
6 0 24 13 40 30 16 16 34 30 40 30 5 0 20 11 32 25 12 14 26 25 32 25 5 0 27
18 48 40 20 23 40 41 42 41 16 -1 35 12 31 19 -3 5 4 11 15 15 11 4 18 11 15
16 -4 5 -2 9 4 9 6 0 22 12 36 27 14 15 25 24 25 20 0 -5 50 41 110 102 61 60
110 114 110 119 0 6 11 19 25 30 13 11 21 22 18 26 -3 3 -2 6 4 6 13 0 63 46
57 52 -2 3 17 26 42 51 25 26 42 47 38 47 -5 0 4 11 19 25 15 14 27 31 27 37
0 6 11 21 25 34 14 13 25 28 25 34 0 5 5 10 11 10 5 0 8 4 5 9 -3 5 1 12 9 15
9 3 20 17 25 31 5 14 14 25 19 25 5 0 12 11 15 25 4 14 11 25 16 25 6 0 10 7
10 15 0 9 7 18 15 21 8 4 15 14 15 24 0 10 3 20 8 22 11 5 52 66 52 78 0 5 4
10 9 10 5 0 12 13 16 30 4 16 11 30 16 30 5 0 9 9 9 19 0 10 7 21 15 25 8 3
15 12 15 21 0 8 5 15 10 15 6 0 10 5 10 11 0 15 62 142 73 150 5 3 8 8 7 10
-1 2 4 18 11 34 14 35 13 32 23 67 5 16 12 28 16 28 9 0 24 49 21 68 -1 6 2
12 7 12 6 0 13 12 16 27 10 39 30 83 38 83 4 0 5 9 3 20 -2 11 0 20 6 20 5 0
9 11 9 25 0 14 4 25 9 25 5 0 11 18 15 40 3 23 10 49 15 58 17 31 24 57 22 80
-1 12 2 22 8 22 6 0 11 16 11 35 0 19 4 35 9 35 6 0 8 9 6 20 -2 11 0 20 6 20
5 0 9 13 9 29 0 17 4 32 9 35 4 3 7 18 5 33 -1 15 3 34 9 41 6 8 10 28 8 44
-1 16 3 36 9 43 7 8 10 26 8 40 -3 14 -1 28 3 31 5 3 9 27 9 53 0 26 3 51 7
55 4 3 9 14 11 24 9 34 14 952 5 952 -4 0 -7 31 -6 70 1 38 -1 70 -6 70 -4 0
-8 18 -9 41 -1 22 -5 48 -10 57 -4 9 -7 29 -6 45 0 15 -2 27 -6 27 -4 0 -10
26 -14 58 -11 88 -12 91 -19 98 -4 4 -7 20 -7 36 0 15 -4 28 -9 28 -5 0 -8 8
-7 17 2 9 -3 28 -10 42 -7 13 -11 28 -8 33 3 5 1 14 -4 21 -5 7 -10 19 -10 27
-3 37 -15 80 -22 80 -7 0 -17 36 -22 78 -1 6 -6 12 -11 12 -5 0 -7 6 -4 14 3
7 -1 23 -8 34 -8 10 -11 22 -8 26 3 3 1 6 -5 6 -7 0 -12 11 -12 25 0 14 -4 25
-9 25 -5 0 -12 18 -16 40 -4 22 -11 40 -17 40 -6 0 -8 9 -5 20 3 10 2 20 -2
22 -7 3 -51 92 -77 158 -10 25 -21 47 -24 50 -9 9 -50 97 -50 109 0 6 -4 11
-10 11 -5 0 -10 7 -10 15 0 8 -4 15 -10 15 -5 0 -12 11 -16 25 -3 14 -11 25
-16 25 -6 0 -8 7 -4 15 3 8 2 15 -2 15 -7 0 -26 30 -38 63 -3 9 -10 17 -15 17
-5 0 -18 20 -29 45 -11 25 -25 45 -30 45 -6 0 -10 9 -10 21 0 11 -4 17 -10 14
-5 -3 -12 6 -16 20 -3 14 -10 25 -14 25 -5 0 -12 10 -15 22 -4 11 -18 31 -31
43 -13 12 -24 27 -24 34 0 6 -4 11 -9 11 -5 0 -13 10 -16 21 -4 12 -23 37 -42
56 -20 18 -33 36 -30 39 3 3 -10 19 -29 36 -19 17 -34 35 -34 41 0 6 -24 33
-54 61 -29 28 -54 54 -54 59 -2 11 -21 43 -22 34 0 -4 -6 -2 -14 5 -8 7 -13
15 -12 18 3 7 -113 118 -118 113 -2 -3 -7 5 -11 16 -3 12 -13 21 -21 21 -9 0
-41 27 -73 60 -32 33 -63 60 -69 60 -6 0 -18 10 -26 22 -9 12 -16 19 -16 14 0
-5 -9 3 -21 18 -11 14 -26 26 -32 26 -7 0 -23 14 -37 30 -14 17 -32 30 -42 30
-9 0 -20 9 -23 20 -4 11 -11 18 -16 15 -5 -4 -9 -1 -9 4 0 6 -7 11 -15 11 -8
0 -15 4 -15 9 0 5 -10 13 -22 16 -11 4 -31 18 -43 31 -12 13 -28 24 -34 24 -6
0 -14 6 -17 14 -3 8 -16 17 -30 20 -13 4 -24 11 -24 16 0 6 -7 10 -15 10 -8 0
-15 5 -15 11 0 5 -4 7 -10 4 -5 -3 -10 -1 -10 4 0 6 -7 11 -15 11 -8 0 -15 3
-15 8 0 7 -30 25 -62 38 -10 3 -18 10 -18 15 0 5 -7 6 -15 3 -8 -4 -15 -1 -15
5 0 6 -6 11 -14 11 -8 0 -16 7 -20 15 -3 8 -15 15 -26 15 -11 0 -20 4 -20 9 0
5 -13 12 -30 16 -16 4 -30 10 -30 15 0 7 -29 18 -47 18 -3 0 -9 4 -12 9 -9 11
-79 43 -96 43 -8 0 -15 4 -15 10 0 5 -16 12 -35 16 -20 3 -33 9 -30 12 8 8
-55 33 -66 26 -5 -3 -9 -1 -9 4 0 11 -35 25 -62 25 -10 0 -18 4 -18 8 0 5 -7
9 -15 9 -8 0 -15 4 -15 9 0 6 -8 10 -17 10 -41 1 -82 14 -76 24 4 6 -1 8 -14
5 -11 -3 -28 1 -37 8 -10 7 -24 10 -32 7 -8 -3 -14 0 -14 6 0 6 -11 11 -25 11
-14 0 -25 4 -25 9 0 5 -13 8 -30 6 -16 -2 -30 0 -30 5 0 6 -9 10 -19 10 -11 0
-22 4 -25 9 -3 5 -33 12 -66 16 -33 4 -60 11 -60 15 0 4 -18 7 -40 6 -22 0
-40 4 -40 9 0 7 -14 9 -34 7 -18 -2 -37 1 -40 7 -4 6 -20 11 -37 11 -16 0 -29
4 -29 8 0 4 -25 7 -56 7 -30 -1 -57 2 -60 7 -3 4 -29 8 -59 8 -30 0 -56 4 -59
8 -2 4 -52 7 -110 7 -58 -1 -106 3 -106 7 0 11 -447 10 -454 0z"/>
</g>
</svg>
